<?xml version="1.0" encoding="utf-8"?>
<!-- Generator: Adobe Illustrator 16.0.0, SVG Export Plug-In . SVG Version: 6.00 Build 0)  -->
<!DOCTYPE svg PUBLIC "-//W3C//DTD SVG 1.1//EN" "http://www.w3.org/Graphics/SVG/1.1/DTD/svg11.dtd">
<svg xmlns="http://www.w3.org/2000/svg" xmlns:xlink="http://www.w3.org/1999/xlink" version="1.1" id="Слой_1" x="0px" y="0px" width="595.28px" height="841.89px" viewBox="278.0740051269531 387.8840026855469 37.9320068359375 65.0460205078125" enable-background="new 0 0 595.28 841.89" xml:space="preserve">
<path d="M281.983,452.282c0.434,0.434,0.934,0.648,1.5,0.648s1.066-0.215,1.5-0.648l30.372-30.375  c0.437-0.433,0.651-0.934,0.651-1.5c0-0.562-0.215-1.062-0.651-1.5l-30.372-30.371c-0.434-0.433-0.934-0.652-1.5-0.652  s-1.066,0.219-1.5,0.652l-3.258,3.258c-0.434,0.434-0.651,0.934-0.651,1.5c0,0.563,0.218,1.063,0.651,1.5l25.613,25.613  l-25.613,25.618c-0.434,0.434-0.651,0.934-0.651,1.496c0,0.566,0.218,1.066,0.651,1.5L281.983,452.282L281.983,452.282z   M281.983,452.282"/>
</svg>