<?xml version="1.0" encoding="utf-8"?>
<!-- Generator: Adobe Illustrator 16.0.0, SVG Export Plug-In . SVG Version: 6.00 Build 0)  -->
<!DOCTYPE svg PUBLIC "-//W3C//DTD SVG 1.1//EN" "http://www.w3.org/Graphics/SVG/1.1/DTD/svg11.dtd">
<svg xmlns="http://www.w3.org/2000/svg" xmlns:xlink="http://www.w3.org/1999/xlink" version="1.1" id="Слой_1" x="0px" y="0px" width="595.28px" height="841.89px" viewBox="278.0749816894531 387.88299560546875 37.9320068359375 65.0460205078125" enable-background="new 0 0 595.28 841.89" xml:space="preserve">
<path d="M312.098,452.282l3.258-3.262c0.434-0.434,0.651-0.934,0.651-1.5c0-0.563-0.218-1.063-0.651-1.496l-25.613-25.618  l25.613-25.613c0.434-0.437,0.651-0.937,0.651-1.5c0-0.566-0.218-1.066-0.651-1.5l-3.258-3.258c-0.434-0.433-0.934-0.652-1.5-0.652  s-1.066,0.219-1.5,0.652l-30.372,30.371c-0.437,0.438-0.651,0.938-0.651,1.5c0,0.567,0.215,1.067,0.651,1.5l30.372,30.375  c0.434,0.434,0.934,0.648,1.5,0.648S311.664,452.715,312.098,452.282L312.098,452.282z M312.098,452.282"/>
</svg>