<?xml version="1.0" encoding="utf-8"?>
<!-- Generator: Adobe Illustrator 16.0.0, SVG Export Plug-In . SVG Version: 6.00 Build 0)  -->
<!DOCTYPE svg PUBLIC "-//W3C//DTD SVG 1.1//EN" "http://www.w3.org/Graphics/SVG/1.1/DTD/svg11.dtd">
<svg version="1.1" id="Слой_1" xmlns="http://www.w3.org/2000/svg" xmlns:xlink="http://www.w3.org/1999/xlink" x="0px" y="0px"
	 width="72px" height="70px" viewBox="0 0 72 70" enable-background="new 0 0 72 70" xml:space="preserve">
<path opacity="0.6" fill="#FFFFFF" d="M22.726,56.293c-0.164,0-0.327-0.051-0.467-0.151c-0.248-0.181-0.371-0.485-0.317-0.785
	l2.473-14.414L13.941,30.735c-0.22-0.211-0.298-0.532-0.203-0.821c0.094-0.289,0.344-0.5,0.646-0.543l14.471-2.102l6.474-13.116
	c0.138-0.274,0.414-0.446,0.72-0.446c0.303,0,0.582,0.172,0.714,0.446l6.473,13.116l14.473,2.102
	c0.301,0.043,0.551,0.254,0.648,0.543c0.094,0.289,0.016,0.61-0.203,0.821L47.68,40.946l2.473,14.414
	c0.051,0.296-0.074,0.601-0.32,0.781c-0.246,0.18-0.574,0.202-0.844,0.058l-12.94-6.804l-12.947,6.804
	C22.984,56.262,22.854,56.293,22.726,56.293L22.726,56.293z"/>
<path fill="#383838" d="M22.633,56.293c-0.164,0-0.328-0.051-0.468-0.151c-0.247-0.181-0.371-0.485-0.317-0.785l2.473-14.414
	L13.849,30.735c-0.219-0.211-0.297-0.532-0.203-0.821c0.094-0.289,0.344-0.5,0.645-0.543l14.472-2.102l6.473-13.116
	c0.137-0.274,0.414-0.446,0.719-0.446c0.304,0,0.582,0.172,0.714,0.446l6.473,13.116l14.473,2.102
	c0.301,0.043,0.551,0.254,0.648,0.543c0.094,0.289,0.016,0.61-0.203,0.821L47.587,40.946L50.06,55.36
	c0.051,0.296-0.074,0.601-0.32,0.781c-0.246,0.18-0.574,0.202-0.844,0.058l-12.941-6.804l-12.946,6.804
	C22.892,56.262,22.762,56.293,22.633,56.293L22.633,56.293z M16.126,30.719l9.613,9.371c0.187,0.185,0.273,0.449,0.226,0.711
	l-2.269,13.23l11.887-6.25c0.23-0.121,0.507-0.121,0.742,0l11.882,6.25l-2.27-13.23c-0.043-0.262,0.043-0.526,0.23-0.711
	l9.613-9.371l-13.285-1.93c-0.262-0.035-0.484-0.199-0.602-0.438l-5.941-12.034l-5.942,12.034c-0.117,0.238-0.344,0.402-0.601,0.441
	L16.126,30.719z M16.126,30.719"/>
<path fill="#333333" d="M43.577,30.48l-0.02-0.002c-0.44-0.061-0.844,0.251-0.903,0.691c-0.058,0.441,0.254,0.846,0.694,0.904
	l0.02,0.002c0.032,0.004,0.066,0.007,0.099,0.008c0.401,0.004,0.75-0.291,0.805-0.7C44.33,30.943,44.02,30.538,43.577,30.48
	L43.577,30.48z"/>
<path fill="#333333" d="M49.865,31.199l-3.807-0.43c-0.44-0.055-0.847,0.257-0.902,0.697c-0.058,0.441,0.257,0.845,0.697,0.901
	l3.808,0.431c0.032,0.003,0.064,0.005,0.096,0.005c0.401,0.003,0.753-0.293,0.806-0.702C50.618,31.658,50.307,31.256,49.865,31.199
	L49.865,31.199z"/>
</svg>
