<?xml version="1.0" encoding="utf-8"?>
<!-- Generator: Adobe Illustrator 16.0.0, SVG Export Plug-In . SVG Version: 6.00 Build 0)  -->
<!DOCTYPE svg PUBLIC "-//W3C//DTD SVG 1.1//EN" "http://www.w3.org/Graphics/SVG/1.1/DTD/svg11.dtd">
<svg xmlns="http://www.w3.org/2000/svg" xmlns:xlink="http://www.w3.org/1999/xlink" version="1.1" id="Слой_1" x="0px" y="0px" width="72px" height="70px" viewBox="7.460999488830566 13.168999671936035 56.4900016784668 43.28900146484375" enable-background="new 0 0 72 70" xml:space="preserve">
<path d="M63.096,19.869L28.461,55.803c-0.433,0.434-0.865,0.655-1.523,0.655c-0.644,0-1.288-0.222-1.51-0.655L8.551,37.624  l-0.436-0.433c-0.433-0.434-0.654-1.089-0.654-1.511c0-0.433,0.221-1.088,0.654-1.523l3.025-3.033c0.865-0.855,2.164-0.855,3.033,0  l0.222,0.222l11.899,12.767c0.432,0.434,1.08,0.434,1.511,0l29.012-30.077h0.211c0.867-0.867,2.167-0.867,3.033,0l3.034,3.021  C63.951,17.713,63.951,19.014,63.096,19.869L63.096,19.869z"/>
</svg>
