<?xml version="1.0" encoding="utf-8"?>
<!-- Generator: Adobe Illustrator 16.0.0, SVG Export Plug-In . SVG Version: 6.00 Build 0)  -->
<!DOCTYPE svg PUBLIC "-//W3C//DTD SVG 1.1//EN" "http://www.w3.org/Graphics/SVG/1.1/DTD/svg11.dtd">
<svg xmlns="http://www.w3.org/2000/svg" xmlns:xlink="http://www.w3.org/1999/xlink" version="1.1" id="Слой_1" x="0px" y="0px" width="72px" height="70px" viewBox="12 13.399999618530273 47.999996185302734 43.19999694824219" enable-background="new 0 0 72 70" xml:space="preserve">
<path d="M59.992,27.799c-0.082-1.367-1.707-2.438-4.965-3.253c0.109-0.239,0.172-0.489,0.172-0.747v-5.598h-0.012  C54.898,13.537,35.793,13.4,33.602,13.4c-2.196,0-21.301,0.137-21.59,4.801H12v5.598c0.004,1.52,1.965,2.711,4.883,3.598  c-0.039,0.133-0.063,0.266-0.071,0.402h-0.011v5.59c-3.145,0.813-4.715,1.867-4.793,3.211H12v5.602  c0.004,1.059,0.957,1.953,2.52,2.703c-0.059,0.16-0.098,0.328-0.11,0.496h-0.012v5.602c0.008,2.66,6,4.313,12.657,5.082  c0.047,0.012,0.093,0.031,0.144,0.031c0.016,0,0.028-0.008,0.043-0.012c1.285,0.145,2.59,0.258,3.879,0.34  c0.027,0.004,0.051,0.016,0.078,0.016c0.016,0,0.028-0.008,0.043-0.008C32.879,56.549,34.492,56.6,36,56.6s3.121-0.051,4.758-0.148  c0.016,0,0.027,0.008,0.043,0.008c0.027,0,0.051-0.016,0.078-0.016c1.289-0.082,2.594-0.195,3.879-0.34  c0.016,0,0.027,0.008,0.043,0.008c0.051,0,0.098-0.02,0.145-0.027c6.656-0.773,12.648-2.426,12.656-5.086V45.4h-0.016  c-0.055-0.98-0.891-1.801-2.543-2.484c0.102-0.23,0.156-0.469,0.156-0.719v-5.23c2.871-0.883,4.797-2.063,4.801-3.57v-5.598H59.992z   M53.512,42.459l-0.27,0.238c-0.422,0.371-1.121,0.742-2.043,1.102v-3.813c0.953-0.332,1.762-0.699,2.402-1.102v3.313  C53.602,42.279,53.57,42.365,53.512,42.459L53.512,42.459z M35.621,46.174c-0.117,0.004-0.234,0.004-0.351,0.008  c-0.286,0.008-0.579,0.008-0.868,0.012v-3.996c0.219-0.004,0.438-0.008,0.66-0.012l0.126-0.004c0.804-0.012,1.613-0.039,2.414-0.074  V46.1c-0.172,0.012-0.344,0.02-0.516,0.027C36.602,46.146,36.117,46.162,35.621,46.174L35.621,46.174z M32.129,46.186  c-0.367-0.008-0.734-0.016-1.094-0.027l-0.137-0.004c-0.433-0.016-0.867-0.031-1.296-0.055v-3.992c0.8,0.039,1.605,0.063,2.41,0.078  c0.043,0,0.086,0,0.129,0c0.218,0.004,0.437,0.008,0.66,0.012v3.996c-0.156,0-0.313,0-0.465-0.004  C32.266,46.189,32.195,46.186,32.129,46.186L32.129,46.186z M17.676,44.361c-0.024-0.008-0.051-0.016-0.074-0.023v-3.863  c0.746,0.203,1.55,0.387,2.398,0.555v3.902c-0.734-0.156-1.41-0.32-2.027-0.488C17.875,44.416,17.773,44.389,17.676,44.361  L17.676,44.361z M34.539,50.986c0.223,0.004,0.441,0.008,0.66,0.012v3.996c-1.104-0.008-2.172-0.039-3.199-0.09v-3.996  c0.801,0.039,1.605,0.063,2.414,0.078C34.457,50.986,34.496,50.986,34.539,50.986L34.539,50.986z M37.586,50.986  c0.809-0.016,1.613-0.043,2.414-0.078V54.9c-1.027,0.051-2.094,0.086-3.199,0.094v-4c0.218,0,0.437-0.004,0.66-0.008  C37.504,50.986,37.543,50.986,37.586,50.986L37.586,50.986z M44,50.623v3.973c-0.77,0.082-1.57,0.152-2.398,0.211v-3.992  C42.41,50.764,43.211,50.697,44,50.623L44,50.623z M45.602,50.451c0.824-0.102,1.625-0.215,2.398-0.34v3.93  c-0.754,0.133-1.555,0.254-2.398,0.367V50.451z M49.602,49.826c0.848-0.168,1.652-0.352,2.398-0.551v3.863  c-0.711,0.207-1.516,0.406-2.398,0.594V49.826z M22.398,49.826v3.906c-0.882-0.188-1.687-0.387-2.398-0.594v-3.863  C20.746,49.475,21.551,49.662,22.398,49.826L22.398,49.826z M24,50.111c0.773,0.129,1.574,0.242,2.398,0.34v3.957  c-0.843-0.113-1.644-0.234-2.398-0.367V50.111z M28,50.623c0.789,0.074,1.59,0.141,2.398,0.195v3.988  C29.57,54.748,28.77,54.678,28,54.596V50.623z M26.016,45.838c-0.082-0.008-0.164-0.016-0.243-0.023  c-0.058-0.008-0.117-0.012-0.171-0.02v-3.973c0.785,0.078,1.586,0.141,2.398,0.195v3.988C27.328,45.955,26.664,45.9,26.016,45.838  L26.016,45.838z M24,41.65v3.957c-0.844-0.113-1.645-0.234-2.398-0.367v-3.93C22.375,41.439,23.176,41.553,24,41.65L24,41.65z   M39.734,45.967c-0.176,0.012-0.355,0.027-0.535,0.039v-3.988c0.813-0.055,1.613-0.117,2.402-0.195v3.973  c-0.496,0.051-1,0.102-1.52,0.145C39.965,45.947,39.848,45.959,39.734,45.967L39.734,45.967z M43.199,45.607V41.65  c0.824-0.098,1.625-0.211,2.402-0.34v3.93C44.848,45.373,44.047,45.498,43.199,45.607L43.199,45.607z M47.199,41.025  c0.852-0.164,1.652-0.352,2.402-0.551v3.863c-0.715,0.207-1.516,0.406-2.402,0.594V41.025z M36.262,37.373  c-0.602-0.016-1.192-0.039-1.77-0.066c-0.031-0.004-0.062-0.004-0.094-0.004v-3.996c0.805,0.039,1.61,0.063,2.414,0.078  c0.043,0,0.086,0,0.126,0.004c0.222,0.004,0.441,0.004,0.66,0.008v3.996c-0.387-0.004-0.782-0.008-1.16-0.016  C36.379,37.373,36.32,37.373,36.262,37.373L36.262,37.373z M17.602,25.939v-3.863c0.746,0.199,1.55,0.384,2.398,0.552v3.905  c-0.098-0.023-0.199-0.043-0.297-0.063c-0.426-0.093-0.84-0.191-1.238-0.297C18.164,26.1,17.875,26.018,17.602,25.939L17.602,25.939  z M32.141,23.787c0.218,0.005,0.437,0.009,0.66,0.009v3.996c-1.078-0.013-2.149-0.039-3.199-0.091V23.71  c0.8,0.034,1.605,0.062,2.41,0.077C32.055,23.787,32.098,23.787,32.141,23.787L32.141,23.787z M35.188,23.783  c0.804-0.016,1.609-0.039,2.414-0.073v3.987c-0.137,0.009-0.27,0.016-0.406,0.023c-0.008,0-0.02,0-0.031,0.004  c-0.54,0.024-1.086,0.039-1.641,0.051c-0.085,0.004-0.171,0.004-0.257,0.008c-0.286,0.004-0.578,0.009-0.868,0.009v-3.996  c0.223,0,0.442-0.004,0.661-0.009L35.188,23.783z M53.418,24.186l-0.023-0.004l-0.293,0.227c-0.422,0.328-1.07,0.66-1.902,0.984  v-3.808c0.953-0.329,1.762-0.696,2.402-1.099v3.31C53.602,23.917,53.535,24.049,53.418,24.186L53.418,24.186z M43.199,27.201v-3.952  c0.824-0.099,1.625-0.212,2.402-0.337v3.923C44.84,26.967,44.043,27.092,43.199,27.201L43.199,27.201z M47.199,26.525v-3.897  c0.852-0.168,1.652-0.353,2.402-0.552v3.855C48.883,26.139,48.074,26.338,47.199,26.525L47.199,26.525z M41.602,23.424v3.969  c-0.773,0.078-1.574,0.153-2.402,0.211v-3.984C40.012,23.564,40.813,23.499,41.602,23.424L41.602,23.424z M25.602,27.393v-3.969  c0.785,0.075,1.586,0.141,2.398,0.195v3.98C27.188,27.542,26.383,27.475,25.602,27.393L25.602,27.393z M24,23.249v3.952  c-0.16-0.02-0.324-0.034-0.48-0.059c-0.102-0.012-0.2-0.027-0.301-0.043c-0.461-0.066-0.914-0.137-1.356-0.211  c-0.09-0.015-0.175-0.031-0.261-0.047v-3.93C22.375,23.037,23.176,23.15,24,23.249L24,23.249z M32.602,37.193  c-0.11-0.012-0.215-0.02-0.325-0.027c-0.511-0.039-1.011-0.082-1.5-0.133c-0.105-0.008-0.211-0.02-0.312-0.031  c-0.024,0-0.043-0.004-0.067-0.008v-3.973c0.79,0.078,1.59,0.141,2.403,0.195v3.988C32.734,37.201,32.668,37.197,32.602,37.193  L32.602,37.193z M27.316,36.596c-0.316-0.051-0.613-0.105-0.918-0.16v-3.922c0.778,0.125,1.579,0.239,2.403,0.336v3.957  c-0.492-0.063-0.969-0.133-1.43-0.203C27.352,36.6,27.336,36.596,27.316,36.596L27.316,36.596z M24.801,32.229v3.898  c-0.887-0.191-1.688-0.395-2.403-0.602v-3.852C23.148,31.878,23.949,32.061,24.801,32.229L24.801,32.229z M20.801,31.186v3.801  c-1.258-0.483-2.071-0.98-2.332-1.422l-0.055-0.09c-0.004-0.027-0.012-0.051-0.016-0.078v-3.312  C19.039,30.486,19.848,30.854,20.801,31.186L20.801,31.186z M39.988,33.385c0.805-0.016,1.609-0.039,2.41-0.078v3.992  c-1.051,0.051-2.117,0.078-3.199,0.09v-3.992c0.223-0.004,0.441-0.004,0.66-0.008L39.988,33.385z M50.324,36.455  c-0.352,0.059-0.703,0.121-1.066,0.176c-0.211,0.031-0.426,0.063-0.637,0.094c-0.203,0.027-0.414,0.051-0.621,0.078V32.85  c0.824-0.097,1.625-0.211,2.402-0.336v3.926C50.375,36.443,50.352,36.451,50.324,36.455L50.324,36.455z M44.91,37.139  c-0.301,0.023-0.609,0.039-0.91,0.063v-3.984c0.813-0.055,1.613-0.117,2.398-0.195v3.969c-0.465,0.051-0.926,0.098-1.406,0.141  C44.965,37.131,44.938,37.135,44.91,37.139L44.91,37.139z M54.051,35.639c-0.398,0.109-0.82,0.215-1.25,0.316  c-0.199,0.047-0.402,0.09-0.609,0.137c-0.063,0.012-0.129,0.027-0.191,0.039v-3.902c0.852-0.168,1.652-0.351,2.402-0.555v3.867  C54.285,35.572,54.168,35.604,54.051,35.639L54.051,35.639z M58.391,27.854c-0.074,0.543-1.305,1.266-3.5,1.945  c-2.832,0.872-7.262,1.672-12.875,1.922c-0.285,0.012-0.574,0.023-0.863,0.035c-0.242,0.008-0.48,0.012-0.727,0.02  c-0.66,0.017-1.332,0.023-2.027,0.023c-0.691,0-1.363-0.007-2.028-0.023c-0.242-0.008-0.479-0.016-0.723-0.022  c-0.293-0.009-0.578-0.021-0.867-0.032c-5.609-0.25-10.039-1.05-12.871-1.925c-2.18-0.672-3.406-1.392-3.5-1.931  c0.004-0.016,0.004-0.027,0.016-0.047c0.054,0.013,0.113,0.023,0.168,0.039c0.312,0.074,0.636,0.146,0.961,0.215  c1.59,0.34,3.351,0.621,5.226,0.836c0.008,0,0.012,0.004,0.02,0.004h0.004c1.277,0.145,2.605,0.259,3.965,0.341  c0.011,0,0.019,0.007,0.031,0.007c0.004,0,0.008-0.004,0.015-0.004c0.981,0.055,1.973,0.098,2.977,0.122  c0.613,0.015,1.219,0.022,1.809,0.022c0.418,0,0.847-0.004,1.285-0.012c5.812-0.09,11.199-0.781,14.945-1.852  c0.176-0.051,0.344-0.102,0.508-0.152c0.102-0.031,0.207-0.059,0.305-0.089c0.289-0.095,0.566-0.192,0.836-0.29  c0.047-0.016,0.09-0.035,0.137-0.05c0.227-0.087,0.445-0.177,0.652-0.267c0.059-0.027,0.121-0.055,0.18-0.078  c0.223-0.102,0.438-0.203,0.637-0.309c0.086-0.047,0.164-0.097,0.25-0.145c0.094-0.055,0.191-0.112,0.281-0.168  c0.051-0.03,0.109-0.063,0.156-0.094C57.355,26.671,58.301,27.521,58.391,27.854L58.391,27.854z M33.602,15.003  c13.191,0,19.863,2.073,19.988,3.265c-0.098,0.543-1.328,1.258-3.5,1.93c-2.832,0.875-7.262,1.677-12.871,1.922  c-0.289,0.012-0.574,0.023-0.867,0.035c-0.243,0.008-0.481,0.017-0.723,0.02c-0.664,0.016-1.336,0.027-2.027,0.027  c-0.696,0-1.368-0.012-2.028-0.027c-0.246-0.003-0.484-0.012-0.726-0.02c-0.293-0.012-0.578-0.023-0.864-0.035  c-5.613-0.245-10.043-1.047-12.875-1.922c-2.171-0.672-3.402-1.387-3.496-1.93C13.738,17.076,20.41,15.003,33.602,15.003  L33.602,15.003z M13.602,23.799v-3.313c0.636,0.402,1.445,0.77,2.398,1.099v3.832C14.445,24.835,13.602,24.249,13.602,23.799  L13.602,23.799z M17.477,34.869c0.011,0.012,0.027,0.023,0.043,0.035c1.093,1.105,3.359,1.977,6.183,2.625  c0.067,0.012,0.133,0.027,0.199,0.043c0.207,0.047,0.418,0.094,0.633,0.137c2.59,0.551,5.688,0.949,9.059,1.148  c0.004,0,0.004,0,0.004,0c0.004,0,0.004,0,0.004,0c1.086,0.063,2.191,0.105,3.324,0.125c0.5,0.012,0.992,0.02,1.472,0.02  c0.555,0,1.121-0.008,1.695-0.023c1.047-0.02,2.078-0.063,3.094-0.121c0.004,0,0.008,0,0.012,0c0.008,0,0.012-0.004,0.02-0.004  c3.383-0.199,6.555-0.602,9.238-1.18c-0.582,0.301-1.379,0.617-2.367,0.922c-2.988,0.926-7.762,1.766-13.824,1.961  c-0.18,0.004-0.36,0.012-0.543,0.016c-0.196,0.004-0.395,0.008-0.594,0.012c-0.504,0.008-1.008,0.016-1.527,0.016  c-0.696,0-1.368-0.008-2.028-0.023c-0.246-0.008-0.484-0.016-0.726-0.023c-0.293-0.008-0.578-0.02-0.864-0.031  c-5.613-0.25-10.043-1.051-12.875-1.926c-2.199-0.68-3.429-1.402-3.5-1.945C13.699,36.35,14.508,35.596,17.477,34.869L17.477,34.869  z M13.602,42.197v-3.313c0.636,0.402,1.445,0.77,2.398,1.102v3.813l-0.457-0.176l-0.008,0.008  C14.277,43.111,13.602,42.6,13.602,42.197L13.602,42.197z M16,50.998v-3.313c0.641,0.402,1.449,0.77,2.398,1.102v3.828  C16.844,52.033,16,51.447,16,50.998L16,50.998z M53.602,52.615v-3.828c0.949-0.332,1.758-0.699,2.398-1.102v3.309  C56,51.447,55.156,52.033,53.602,52.615L53.602,52.615z M55.988,45.463c-0.086,0.539-1.316,1.258-3.5,1.934  c-2.828,0.875-7.258,1.676-12.871,1.926c-0.289,0.012-0.574,0.023-0.867,0.031c-0.238,0.008-0.48,0.016-0.723,0.023  C37.363,49.389,36.691,49.4,36,49.4s-1.367-0.012-2.027-0.027c-0.243-0.004-0.481-0.012-0.719-0.02  c-0.293-0.012-0.582-0.023-0.871-0.035c-5.613-0.246-10.043-1.047-12.871-1.922c-2.117-0.652-3.34-1.348-3.492-1.883  c0.238,0.082,0.484,0.164,0.738,0.242c0.027,0.008,0.051,0.016,0.078,0.023c0.215,0.066,0.437,0.129,0.664,0.191  c0.086,0.023,0.172,0.051,0.258,0.07c0.129,0.035,0.258,0.07,0.39,0.102c2.914,0.746,6.633,1.277,10.649,1.516c0,0,0,0,0.004,0  c1.242,0.07,2.508,0.117,3.789,0.133c0.34,0.008,0.68,0.008,1.012,0.008c0.437,0,0.89-0.004,1.347-0.012  c1.168-0.02,2.32-0.063,3.445-0.129c0.004,0,0.004,0,0.008,0s0.004,0,0.008,0c1.371-0.086,2.699-0.203,3.977-0.348  c0.004,0,0.008,0,0.016,0c0.016,0,0.031-0.008,0.047-0.008c1.422-0.164,2.77-0.367,4.02-0.602c0.258-0.047,0.512-0.094,0.762-0.145  c0.059-0.012,0.113-0.023,0.168-0.035c2.363-0.484,4.406-1.113,5.813-1.891c0.074-0.043,0.148-0.086,0.219-0.129  c0.09-0.051,0.176-0.105,0.258-0.16c0.078-0.051,0.164-0.098,0.234-0.148C55.504,44.756,55.938,45.26,55.988,45.463L55.988,45.463z   M56,35.014v-3.828c0.953-0.332,1.762-0.699,2.398-1.101v3.312C58.398,33.846,57.555,34.432,56,35.014L56,35.014z M56,35.014"/>
</svg>