<?xml version="1.0" encoding="utf-8"?>
<!-- Generator: Adobe Illustrator 16.0.0, SVG Export Plug-In . SVG Version: 6.00 Build 0)  -->
<!DOCTYPE svg PUBLIC "-//W3C//DTD SVG 1.1//EN" "http://www.w3.org/Graphics/SVG/1.1/DTD/svg11.dtd">
<svg xmlns="http://www.w3.org/2000/svg" xmlns:xlink="http://www.w3.org/1999/xlink" version="1.1" id="Слой_1" x="0px" y="0px" width="72px" height="70px" viewBox="11.37700080871582 10.463000297546387 51.51300048828125 51" enable-background="new 0 0 72 70" xml:space="preserve">
<path fill="#1D1D1B" d="M34.686,36.049l-22.664,22.66c-0.629,0.633-0.629,1.652,0,2.281c0.313,0.316,0.727,0.473,1.141,0.473  c0.41,0,0.824-0.156,1.137-0.473l22.832-22.832L59.967,60.99c0.313,0.316,0.727,0.473,1.137,0.473c0.414,0,0.824-0.156,1.141-0.473  c0.629-0.629,0.629-1.648,0-2.281l-22.66-22.66l22.676-22.68c0.629-0.629,0.629-1.648,0-2.277s-1.648-0.629-2.277,0L37.135,33.939  L14.283,11.092c-0.629-0.629-1.648-0.629-2.277,0s-0.629,1.648,0,2.277L34.686,36.049z M34.686,36.049"/>
</svg>