<?xml version="1.0" encoding="utf-8"?>
<!-- Generator: Adobe Illustrator 16.0.0, SVG Export Plug-In . SVG Version: 6.00 Build 0)  -->
<!DOCTYPE svg PUBLIC "-//W3C//DTD SVG 1.1//EN" "http://www.w3.org/Graphics/SVG/1.1/DTD/svg11.dtd">
<svg xmlns="http://www.w3.org/2000/svg" xmlns:xlink="http://www.w3.org/1999/xlink" version="1.1" id="Слой_1" x="0px" y="0px" width="595.28px" height="841.89px" viewBox="259 382.8900146484375 76.39898681640625 76.39996337890625" enable-background="new 0 0 595.28 841.89" xml:space="preserve">
<g>
	<path d="M290.281,382.89h-29.679c-0.883,0-1.602,0.719-1.602,1.602v29.679c0,0.883,0.719,1.602,1.602,1.602h29.679   c0.883,0,1.598-0.719,1.598-1.602v-29.679C291.879,383.609,291.164,382.89,290.281,382.89L290.281,382.89z M290.281,382.89"/>
	<path d="M333.801,382.89h-29.68c-0.887,0-1.602,0.719-1.602,1.602v29.679c0,0.883,0.715,1.602,1.602,1.602h29.68   c0.883,0,1.598-0.719,1.598-1.602v-29.679C335.398,383.609,334.684,382.89,333.801,382.89L333.801,382.89z M333.801,382.89"/>
	<path d="M290.281,426.41h-29.679c-0.883,0-1.602,0.715-1.602,1.602v29.68c0,0.883,0.719,1.598,1.602,1.598h29.679   c0.883,0,1.598-0.715,1.598-1.598v-29.68C291.879,427.125,291.164,426.41,290.281,426.41L290.281,426.41z M290.281,426.41"/>
	<path d="M333.801,426.41h-29.68c-0.887,0-1.602,0.715-1.602,1.602v29.68c0,0.883,0.715,1.598,1.602,1.598h29.68   c0.883,0,1.598-0.715,1.598-1.598v-29.68C335.398,427.125,334.684,426.41,333.801,426.41L333.801,426.41z M333.801,426.41"/>
</g>
</svg>