<?xml version="1.0" encoding="utf-8"?>
<!-- Generator: Adobe Illustrator 16.0.0, SVG Export Plug-In . SVG Version: 6.00 Build 0)  -->
<!DOCTYPE svg PUBLIC "-//W3C//DTD SVG 1.1//EN" "http://www.w3.org/Graphics/SVG/1.1/DTD/svg11.dtd">
<svg xmlns="http://www.w3.org/2000/svg" xmlns:xlink="http://www.w3.org/1999/xlink" version="1.1" id="Слой_1" x="0px" y="0px" width="72px" height="70px" viewBox="6.096999645233154 8.913999557495117 60 52.17399597167969" enable-background="new 0 0 72 70" xml:space="preserve">
<path d="M49.779,49.987c-3.053,0-5.551,2.497-5.551,5.55s2.498,5.551,5.551,5.551c3.053,0,5.55-2.498,5.55-5.551  S52.832,49.987,49.779,49.987L49.779,49.987z M49.779,58.867c-1.832,0-3.33-1.498-3.33-3.33s1.499-3.33,3.33-3.33  s3.33,1.498,3.33,3.33S51.61,58.867,49.779,58.867L49.779,58.867z M49.779,58.867"/>
<path d="M27.577,49.987c-3.053,0-5.551,2.497-5.551,5.55s2.498,5.551,5.551,5.551c3.053,0,5.55-2.498,5.55-5.551  S30.63,49.987,27.577,49.987L27.577,49.987z M27.577,58.867c-1.832,0-3.33-1.498-3.33-3.33s1.499-3.33,3.33-3.33  c1.831,0,3.33,1.498,3.33,3.33S29.408,58.867,27.577,58.867L27.577,58.867z M27.577,58.867"/>
<path d="M65.32,18.128c-0.61-0.889-1.61-1.443-2.72-1.443H17.309l-0.666-3.33c-0.499-2.609-2.775-4.441-5.439-4.441H7.207  c-0.61,0-1.11,0.5-1.11,1.11c0,0.611,0.5,1.11,1.11,1.11h3.997c1.609,0,2.941,1.11,3.219,2.664l0.833,4.219  c0,0.111,0.056,0.222,0.111,0.332l4.773,24.978c0.555,2.609,2.831,4.496,5.495,4.496H51.61c2.331,0,4.385-1.443,5.218-3.607  l8.825-22.979C66.097,20.181,65.931,19.015,65.32,18.128L65.32,18.128z M63.599,20.402l-8.825,22.979  c-0.5,1.332-1.721,2.164-3.109,2.164H25.69c-1.554,0-2.942-1.165-3.275-2.719l-3.33-17.263h26.199c0.61,0,1.11-0.499,1.11-1.109  c0-0.611-0.5-1.11-1.11-1.11H18.641l-0.833-4.44h44.792c0.388,0,0.666,0.166,0.888,0.444C63.71,19.681,63.766,20.07,63.599,20.402  L63.599,20.402z M63.599,20.402"/>
<path d="M51.943,23.345h-1.666c-0.61,0-1.11,0.499-1.11,1.11c0,0.61,0.5,1.109,1.11,1.109h1.666c0.61,0,1.11-0.499,1.11-1.109  C53.053,23.844,52.554,23.345,51.943,23.345L51.943,23.345z M51.943,23.345"/>
</svg>