<?xml version="1.0" encoding="utf-8"?>
<!-- Generator: Adobe Illustrator 21.1.0, SVG Export Plug-In . SVG Version: 6.00 Build 0)  -->
<svg xmlns="http://www.w3.org/2000/svg" xmlns:xlink="http://www.w3.org/1999/xlink" version="1.1" id="Слой_1" x="0px" y="0px" viewBox="735.4000244140625 488.5 73.4000244140625 82.5" style="enable-background:new 0 0 841.9 595.3;" xml:space="preserve">
<g>
	<path d="M752.4,516h17.9c2.5,0,4.5-2,4.5-4.5c0-2.5-2-4.5-4.5-4.5h-17.9c-2.5,0-4.5,2-4.5,4.5C747.9,514,749.9,516,752.4,516   L752.4,516z M752.4,516"/>
	<path d="M752.4,535.7H790c2.5,0,4.5-2,4.5-4.5c0-2.5-2-4.5-4.5-4.5h-37.6c-2.5,0-4.5,2-4.5,4.5   C747.9,533.7,749.9,535.7,752.4,535.7L752.4,535.7z M752.4,535.7"/>
	<path d="M791.8,544.7h-39.4c-2.5,0-4.5,2-4.5,4.5s2,4.5,4.5,4.5h39.4c2.5,0,4.5-2,4.5-4.5S794.3,544.7,791.8,544.7L791.8,544.7z    M791.8,544.7"/>
	<path d="M790.9,488.5h-45.5c-5.5,0-10,4.5-10,10v62.4c0,5.5,4.5,10.1,10,10.1h53.4c5.5,0,10-4.5,10-10.1v-54L790.9,488.5z    M798.8,563.7h-53.4c-1.6,0-2.9-1.3-2.9-2.9v-62.4c0-1.6,1.3-2.9,2.9-2.9h42v8.1c0,3.5,2.9,6.4,6.4,6.5l7.9,0.1v50.7   C801.7,562.4,800.4,563.7,798.8,563.7L798.8,563.7z M798.8,563.7"/>
</g>
</svg>
