<?xml version="1.0" encoding="utf-8"?>
<!-- Generator: Adobe Illustrator 16.0.0, SVG Export Plug-In . SVG Version: 6.00 Build 0)  -->
<!DOCTYPE svg PUBLIC "-//W3C//DTD SVG 1.1//EN" "http://www.w3.org/Graphics/SVG/1.1/DTD/svg11.dtd">
<svg xmlns="http://www.w3.org/2000/svg" xmlns:xlink="http://www.w3.org/1999/xlink" version="1.1" id="Слой_1" x="0px" y="0px" width="595.28px" height="841.89px" viewBox="125 270.8900146484375 346.1579895019531 301.9200439453125" enable-background="new 0 0 595.28 841.89" xml:space="preserve">
<path d="M376.84,507.851c-17.602,0-32,14.398-32,32c0,17.598,14.398,32,32,32s32-14.402,32-32  C408.84,522.25,394.441,507.851,376.84,507.851z"/>
<path d="M376.84,559.05"/>
<path d="M248.84,507.851c-17.602,0-32,14.398-32,32c0,17.598,14.398,32,32,32c17.601,0,32-14.402,32-32  C280.84,522.25,266.441,507.851,248.84,507.851z"/>
<path d="M248.84,559.05"/>
<path d="M456.52,337.289"/>
<rect x="125" y="270.89" fill="none" width="344.881" height="301.92"/>
<path d="M466.678,324.171c-3.52-5.121-9.281-8.32-15.68-8.32H189.877l-3.84-19.199c-2.879-15.043-16-25.602-31.36-25.602h-23.043  c-3.519,0-6.398,2.879-6.398,6.398c0,3.524,2.879,6.403,6.398,6.403h23.043c9.278,0,16.957,6.398,18.559,15.359l4.801,24.32  c0,0.641,0.32,1.282,0.64,1.918l27.52,144c3.199,15.043,16.32,25.922,31.68,25.922h149.757c13.441,0,25.281-8.32,30.082-20.8  l50.879-132.481C471.158,336.011,470.197,329.289,466.678,324.171z M350.327,367.05H203.333c-3.52,0-6.398-2.879-6.398-6.398  c0-3.524,2.879-6.403,6.398-6.403h146.994c3.52,0,6.398,2.879,6.398,6.403C356.726,364.171,353.847,367.05,350.327,367.05z   M389.32,367.05h-9.602c-3.52,0-6.398-2.879-6.398-6.398c0-3.524,2.879-6.403,6.398-6.403h9.602c3.52,0,6.398,2.879,6.398,6.403  C395.719,364.171,392.84,367.05,389.32,367.05z"/>
</svg>
