<svg id="Слой_1" data-name="Слой 1" xmlns="http://www.w3.org/2000/svg" xmlns:xlink="http://www.w3.org/1999/xlink" viewBox="0 0 390.65 254.73"><defs><clipPath id="clip-path" transform="translate(-372 -219.64)"><rect x="372" y="219.49" width="390.96" height="255.84" /></clipPath></defs><title>hand</title><g style="clip-path:url(#clip-path)"><path d="M635.31,269.49l-98.8-34.08a38.27,38.27,0,0,0-28.8,1.76l-5,2.4a28,28,0,0,1-21.68,1.2l-8.48-3a9.05,9.05,0,0,0-1.2-.64l-50.56-17.2a4.91,4.91,0,0,0-3.68.24,4.74,4.74,0,0,0-2.4,2.72L372.27,346.77a4.8,4.8,0,0,0,3,6.08l50.64,17.36a3.85,3.85,0,0,0,1.6.32,4.65,4.65,0,0,0,2.08-.48,4.73,4.73,0,0,0,2.4-2.72l40.88-119.2,5.12,1.84a37.93,37.93,0,0,0,29.12-1.68l5-2.4a28.09,28.09,0,0,1,21.44-1.36l95.12,32.8c-.72,4.16-2.72,11-7.92,14.64-4.64,3.2-11.36,3.36-19.84.4l-41.52-14.16a4.94,4.94,0,0,0-3.84.32,5.06,5.06,0,0,0-2.4,3c-.08.24-6.24,23-25.44,33.2-12.16,6.56-27.2,6.8-44.72.8a4.78,4.78,0,1,0-3.12,9,82.15,82.15,0,0,0,26.48,4.8,53.55,53.55,0,0,0,25.92-6.32c17.12-9.2,25.36-26,28.48-34.32l36.88,12.64c11.6,4,21.12,3.44,28.48-1.6,11.84-8.16,12.4-25,12.48-25.68a4.75,4.75,0,0,0-3.2-4.64Zm-210.8,90.08-41.6-14.24,39.36-114.8,40.48,13.84,1,.48.16.08Zm0,0" transform="translate(-372 -219.64)"/><path d="M762.19,340.45,704.43,223.09a4.72,4.72,0,0,0-2.72-2.4,4.88,4.88,0,0,0-3.68.24l-48.08,23.52a4.82,4.82,0,0,0-2.24,6.4l56,114.4-18.8,17.2a225.07,225.07,0,0,1-53.36,36.4l-92.08,45a10.33,10.33,0,0,1-8.16.48,10.86,10.86,0,0,1-6.16-5.44,10.33,10.33,0,0,1-.48-8.16,10.86,10.86,0,0,1,5.44-6.16l51.44-25.2a4.79,4.79,0,1,0-4.16-8.64l-50.32,24.64-25.36,12.4a10.7,10.7,0,0,1-9.44-19.2l73.92-36.16a4.79,4.79,0,1,0-4.16-8.64l-54.72,26.8L488.11,420l-9,4.4a10.7,10.7,0,1,1-9.44-19.2l9.12-4.48,66.16-32.4a4.79,4.79,0,1,0-4.16-8.64l-42.48,20.8L474.59,392a10.33,10.33,0,0,1-8.16.48,10.84,10.84,0,0,1-6.16-5.44,10.32,10.32,0,0,1-.48-8.16,10.87,10.87,0,0,1,5.44-6.16l35.12-17.2a4.8,4.8,0,1,0-4.16-8.64l-35.12,17.2a20.34,20.34,0,0,0-10.32,11.68,20.19,20.19,0,0,0,9.52,24.4,20.26,20.26,0,0,0,14.24,34.72c.88,0,1.76-.08,2.64-.16A20.57,20.57,0,0,0,478.91,447a20.25,20.25,0,0,0,18.24,11.36,19.74,19.74,0,0,0,8.88-2.08l8.72-4.32a19.33,19.33,0,0,0,2,11,20.31,20.31,0,0,0,11.68,10.32,21.06,21.06,0,0,0,6.64,1.12,20.31,20.31,0,0,0,8.88-2.08l92.08-45a233.63,233.63,0,0,0,55.6-38L712.51,370l47.44-23.2a4.82,4.82,0,0,0,2.24-6.4ZM711.79,360l-53.36-109,39.52-19.28,53.28,109Zm0,0" transform="translate(-372 -219.64)"/></g></svg>