<?xml version="1.0" encoding="utf-8"?>
<!-- Generator: Adobe Illustrator 16.0.0, SVG Export Plug-In . SVG Version: 6.00 Build 0)  -->
<!DOCTYPE svg PUBLIC "-//W3C//DTD SVG 1.1//EN" "http://www.w3.org/Graphics/SVG/1.1/DTD/svg11.dtd">
<svg xmlns="http://www.w3.org/2000/svg" xmlns:xlink="http://www.w3.org/1999/xlink" version="1.1" id="Слой_1" x="0px" y="0px" width="72px" height="70px" viewBox="16.992000579833984 15.991999626159668 38.01599884033203 38.01599884033203" enable-background="new 0 0 72 70" xml:space="preserve">
<path d="M36,15.992c-10.48,0-19.008,8.527-19.008,19.008S25.52,54.008,36,54.008S55.008,45.48,55.008,35S46.48,15.992,36,15.992z   M43.683,33.422c-0.419,1.029-1.03,1.951-1.821,2.742c-0.989,0.988-2.209,1.711-3.543,2.098l0.002,2.994h1.651  c0.327-0.002,0.622,0.195,0.757,0.529c0.026,0.07,0.039,0.146,0.039,0.223v3.096c0.002,0.328-0.195,0.623-0.529,0.756  c-0.071,0.027-0.146,0.041-0.222,0.041H38.32v1.941c0.003,0.328-0.196,0.623-0.528,0.756c-0.071,0.027-0.147,0.041-0.222,0.041  h-3.144c-0.076,0-0.153-0.012-0.222-0.041c-0.334-0.133-0.529-0.43-0.529-0.756l0.006-9.584c-1.336-0.389-2.554-1.109-3.542-2.098  c-0.791-0.791-1.406-1.714-1.821-2.742c-0.402-0.994-0.607-2.043-0.607-3.118s0.205-2.124,0.607-3.118  c0.42-1.029,1.03-1.951,1.821-2.742c0.792-0.791,1.714-1.406,2.742-1.822c0.994-0.402,2.043-0.607,3.119-0.607  c1.075,0,2.123,0.205,3.117,0.607c1.029,0.42,1.951,1.031,2.743,1.822c0.791,0.791,1.402,1.713,1.821,2.746  c0.402,0.994,0.607,2.043,0.607,3.119C44.29,31.379,44.085,32.429,43.683,33.422z"/>
<path d="M35.996,26.192c-1.098,0-2.131,0.429-2.907,1.205c-0.775,0.775-1.204,1.81-1.204,2.907s0.426,2.128,1.205,2.906  c0.775,0.775,1.81,1.202,2.909,1.202c1.097,0,2.131-0.429,2.905-1.204c0.776-0.775,1.205-1.81,1.205-2.908  c0.002-1.1-0.428-2.133-1.206-2.903C38.128,26.621,37.094,26.192,35.996,26.192z"/>
</svg>