<?xml version="1.0" encoding="utf-8"?>
<!-- Generator: Adobe Illustrator 16.0.0, SVG Export Plug-In . SVG Version: 6.00 Build 0)  -->
<!DOCTYPE svg PUBLIC "-//W3C//DTD SVG 1.1//EN" "http://www.w3.org/Graphics/SVG/1.1/DTD/svg11.dtd">
<svg xmlns="http://www.w3.org/2000/svg" xmlns:xlink="http://www.w3.org/1999/xlink" version="1.1" id="Слой_1" x="0px" y="0px" width="72px" height="70px" viewBox="7 5.460999011993408 58.400001525878906 59.57500457763672" enable-background="new 0 0 72 70" xml:space="preserve">
<path d="M65.287,35.248L57.506,19.39h6.274c0.6,0,1.087-0.487,1.087-1.087s-0.487-1.086-1.087-1.086H38.916v-3.118  c1.227-0.86,2.031-2.282,2.031-3.891c0-2.617-2.13-4.747-4.748-4.747s-4.747,2.13-4.747,4.747c0,1.608,0.804,3.031,2.03,3.89v3.119  H8.618c-0.6,0-1.087,0.486-1.087,1.086s0.487,1.087,1.087,1.087h6.275L7.111,35.248C7.038,35.396,7,35.561,7,35.726  c0,5.314,4.323,9.637,9.636,9.637c5.314,0,9.636-4.322,9.636-9.637c0-0.165-0.037-0.329-0.111-0.478L18.38,19.39h15.102v32.82  c0,3.706-3.015,6.722-6.72,6.722c-0.601,0-1.087,0.486-1.087,1.087v3.93c0,0.6,0.486,1.087,1.087,1.087h18.875  c0.289,0,0.565-0.115,0.769-0.318c0.204-0.204,0.318-0.48,0.318-0.769v-3.93c0-0.601-0.486-1.087-1.087-1.087  c-3.705,0-6.721-3.016-6.721-6.722V19.39h15.103l-7.782,15.858c-0.072,0.149-0.11,0.313-0.11,0.478c0,5.314,4.323,9.637,9.636,9.637  c5.314,0,9.637-4.322,9.637-9.637C65.398,35.561,65.361,35.396,65.287,35.248L65.287,35.248z M16.636,43.188  c-3.746,0-6.854-2.774-7.382-6.376h14.764C23.491,40.414,20.382,43.188,16.636,43.188L16.636,43.188z M23.442,34.639H9.831  l6.805-13.869L23.442,34.639z M36.199,7.635c1.419,0,2.574,1.155,2.574,2.573c0,1.419-1.155,2.574-2.574,2.574  c-1.419,0-2.573-1.155-2.573-2.574C33.626,8.79,34.78,7.635,36.199,7.635L36.199,7.635z M44.55,61.104v1.757H27.849v-1.757H44.55z   M39.818,58.932H32.58c1.883-1.633,3.076-4.04,3.076-6.722V14.924c0.178,0.021,0.359,0.032,0.543,0.032s0.365-0.011,0.543-0.032  V52.21C36.742,54.892,37.936,57.299,39.818,58.932L39.818,58.932z M55.762,20.77l6.807,13.869H48.957L55.762,20.77z M55.762,43.188  c-3.745,0-6.854-2.774-7.382-6.376h14.765C62.616,40.414,59.508,43.188,55.762,43.188L55.762,43.188z M55.762,43.188"/>
</svg>