<?xml version="1.0" encoding="utf-8"?>
<!-- Generator: Adobe Illustrator 16.0.0, SVG Export Plug-In . SVG Version: 6.00 Build 0)  -->
<!DOCTYPE svg PUBLIC "-//W3C//DTD SVG 1.1//EN" "http://www.w3.org/Graphics/SVG/1.1/DTD/svg11.dtd">
<svg xmlns="http://www.w3.org/2000/svg" xmlns:xlink="http://www.w3.org/1999/xlink" version="1.1" id="Слой_1" x="0px" y="0px" width="595.28px" height="841.89px" viewBox="136 256.80401611328125 322.3980407714844 328.88604736328125" enable-background="new 0 0 595.28 841.89" xml:space="preserve">
<path d="M189.199,465.086c-20.679,0-37.84-15.317-40.754-35.2h81.508C227.039,449.769,209.879,465.086,189.199,465.086  L189.199,465.086z"/>
<path d="M297.199,268.804c7.836,0,14.211,6.375,14.211,14.207c0,7.836-6.375,14.211-14.211,14.211  c-7.836,0-14.207-6.375-14.207-14.211C282.992,275.179,289.367,268.804,297.199,268.804L297.199,268.804z"/>
<rect x="251.098" y="563.992" width="92.203" height="9.699"/>
<path d="M317.18,551.997h-39.96c10.394-9.013,16.979-22.302,16.979-37.106V309.047c0.985,0.113,1.985,0.175,3,0.175  c1.016,0,2.016-0.062,3-0.175V514.89C300.199,529.695,306.785,542.984,317.18,551.997L317.18,551.997z"/>
<path d="M405.199,465.086c-20.68,0-37.84-15.317-40.754-35.2h81.508C443.039,449.769,425.879,465.086,405.199,465.086  L405.199,465.086z"/>
<path d="M405.199,465.086"/>
<polygon fill="none" points="367.629,417.886 442.773,417.886 405.199,341.32 "/>
<path d="M457.785,421.246l-42.957-87.547h34.637c3.313,0,6-2.688,6-6c0-3.313-2.688-6-6-6H312.199v-17.211  c6.77-4.746,11.211-12.598,11.211-21.477c0-14.449-11.758-26.207-26.211-26.207c-14.453,0-26.207,11.758-26.207,26.207  c0,8.879,4.438,16.731,11.207,21.473v17.215H144.934c-3.313,0-6,2.687-6,6c0,3.312,2.687,6,6,6h34.64l-42.961,87.547  c-0.402,0.82-0.613,1.726-0.613,2.64c0,29.336,23.867,53.2,53.199,53.2c29.336,0,53.199-23.864,53.199-53.2  c0-0.914-0.207-1.82-0.613-2.64l-42.957-87.547h83.371V514.89c0,20.461-16.644,37.106-37.101,37.106c-3.317,0-6,2.683-6,6v21.694  c0,3.313,2.683,6,6,6h104.203c1.594,0,3.121-0.633,4.242-1.758c1.129-1.125,1.758-2.652,1.758-4.242v-21.694c0-3.317-2.684-6-6-6  c-20.457,0-37.102-16.646-37.102-37.106V333.699h83.375l-42.961,87.547c-0.402,0.82-0.613,1.726-0.613,2.64  c0,29.336,23.867,53.2,53.199,53.2c29.336,0,53.199-23.864,53.199-53.2C458.398,422.972,458.191,422.066,457.785,421.246z   M226.773,417.886h-75.144l37.57-76.566L226.773,417.886z M367.629,417.886l37.57-76.566l37.574,76.566H367.629z"/>
</svg>