<?xml version="1.0" encoding="utf-8"?>
<!-- Generator: Adobe Illustrator 16.0.0, SVG Export Plug-In . SVG Version: 6.00 Build 0)  -->
<!DOCTYPE svg PUBLIC "-//W3C//DTD SVG 1.1//EN" "http://www.w3.org/Graphics/SVG/1.1/DTD/svg11.dtd">
<svg xmlns="http://www.w3.org/2000/svg" xmlns:xlink="http://www.w3.org/1999/xlink" version="1.1" id="Слой_1" x="0px" y="0px" width="595.28px" height="841.89px" viewBox="259 387.8899841308594 76.39498901367188 66.17501831054688" enable-background="new 0 0 595.28 841.89" xml:space="preserve">
<g>
	<path d="M276.449,396.616c0,4.817-3.906,8.723-8.722,8.723c-4.821,0-8.727-3.906-8.727-8.723c0-4.82,3.906-8.726,8.727-8.726   C272.543,387.89,276.449,391.796,276.449,396.616L276.449,396.616z M276.449,396.616"/>
	<path d="M276.449,420.616c0,4.817-3.906,8.723-8.722,8.723c-4.821,0-8.727-3.906-8.727-8.723c0-4.82,3.906-8.726,8.727-8.726   C272.543,411.89,276.449,415.796,276.449,420.616L276.449,420.616z M276.449,420.616"/>
	<path d="M276.449,445.339c0,4.82-3.906,8.726-8.722,8.726c-4.821,0-8.727-3.905-8.727-8.726c0-4.817,3.906-8.723,8.727-8.723   C272.543,436.617,276.449,440.522,276.449,445.339L276.449,445.339z M276.449,445.339"/>
	<path d="M286.406,402.323h47.391c0.422,0,0.828-0.168,1.129-0.469c0.301-0.3,0.469-0.707,0.469-1.132v-8.215   c0-0.883-0.719-1.602-1.602-1.602h-47.387c-0.883,0-1.601,0.719-1.601,1.602v8.215   C284.805,401.608,285.523,402.323,286.406,402.323L286.406,402.323z M286.406,402.323"/>
	<path d="M333.793,414.905h-47.387c-0.883,0-1.601,0.719-1.601,1.602v8.215c0,0.882,0.718,1.601,1.601,1.601h47.391   c0.422,0,0.828-0.168,1.129-0.469c0.301-0.3,0.469-0.707,0.469-1.132v-8.215C335.395,415.624,334.676,414.905,333.793,414.905   L333.793,414.905z M333.793,414.905"/>
	<path d="M333.793,439.632h-47.387c-0.883,0-1.601,0.715-1.601,1.597v8.219c0,0.884,0.718,1.599,1.601,1.599h47.391   c0.422,0,0.828-0.168,1.129-0.469c0.301-0.298,0.469-0.707,0.469-1.13v-8.219C335.395,440.347,334.676,439.632,333.793,439.632   L333.793,439.632z M333.793,439.632"/>
</g>
</svg>