<svg id="Слой_1" data-name="Слой 1" xmlns="http://www.w3.org/2000/svg" viewBox="0 0 390.32 345.84"><title>people</title><path d="M751.36,395.29c-31.12-25.6-64.72-43.12-74.08-47.76V301a28.35,28.35,0,0,0,10.56-22.08v-52.4a52,52,0,0,0-52-52H624.56a52.05,52.05,0,0,0-52,52v52.4A28.35,28.35,0,0,0,583.12,301v46.56c-9.36,4.64-43,22.16-74.08,47.76a30.16,30.16,0,0,0-11,23.36v35.92a4.8,4.8,0,0,0,9.6,0V418.65a20.56,20.56,0,0,1,7.44-15.92c32.16-26.4,67-44,73.6-47.2a7.07,7.07,0,0,0,4-6.4V298.65a4.76,4.76,0,0,0-2.16-4,18.77,18.77,0,0,1-8.4-15.68v-52.4a42.47,42.47,0,0,1,42.4-42.4h11.28a42.47,42.47,0,0,1,42.4,42.4V279a18.76,18.76,0,0,1-8.4,15.68,4.76,4.76,0,0,0-2.16,4v50.48a7.07,7.07,0,0,0,4,6.4c6.64,3.28,41.52,20.8,73.6,47.2a20.57,20.57,0,0,1,7.44,15.92v35.92a4.8,4.8,0,1,0,9.6,0V418.65a29.67,29.67,0,0,0-11-23.36Zm0,0" transform="translate(-372 -174.49)"/><path d="M485.12,225.85h-9.2a43.22,43.22,0,0,0-43.2,43.2v42.64a24.24,24.24,0,0,0,8.56,18.4v37c-8.24,4.16-35.12,18.32-60,38.72A25.32,25.32,0,0,0,372,425.45v29.2a5.05,5.05,0,0,0,5,4.72,4.81,4.81,0,0,0,4.8-4.8v-29.2a15.6,15.6,0,0,1,5.76-12.24c26.08-21.44,54.4-35.68,59.76-38.32a6.63,6.63,0,0,0,3.76-6V327.69a4.77,4.77,0,0,0-2.16-4,14.6,14.6,0,0,1-6.48-12V269a33.65,33.65,0,0,1,33.6-33.6h9.2A33.64,33.64,0,0,1,518.8,269v42.64a14.3,14.3,0,0,1-6.48,12,4.77,4.77,0,0,0-2.16,4v33.76a4.8,4.8,0,1,0,9.6,0V330.09a24,24,0,0,0,8.56-18.4V269a43.22,43.22,0,0,0-43.2-43.2Zm0,0" transform="translate(-372 -174.49)"/><path d="M652.4,363.69a4.8,4.8,0,1,0-9.6-.08,12.58,12.58,0,0,1-12.56,12.56,13.22,13.22,0,0,1-7.2-2.24,3.51,3.51,0,0,0-1.2-1,12.46,12.46,0,0,1-4.16-9.28,4.8,4.8,0,1,0-9.6,0,22,22,0,0,0,6.48,15.6l-5.44,120.8a4.55,4.55,0,0,0,1.6,3.76l16.88,15.28a4.87,4.87,0,0,0,6.4,0l16.64-15a4.79,4.79,0,0,0,1.6-3.76L647,378.17a22.2,22.2,0,0,0,5.44-14.48ZM630.8,509l-12-10.8,5.12-113.36a23.06,23.06,0,0,0,6.32,1,22.57,22.57,0,0,0,7.36-1.28l4.88,114Zm0,0" transform="translate(-372 -174.49)"/></svg>