<?xml version="1.0" encoding="utf-8"?>
<!-- Generator: Adobe Illustrator 16.0.0, SVG Export Plug-In . SVG Version: 6.00 Build 0)  -->
<!DOCTYPE svg PUBLIC "-//W3C//DTD SVG 1.1//EN" "http://www.w3.org/Graphics/SVG/1.1/DTD/svg11.dtd">
<svg xmlns="http://www.w3.org/2000/svg" xmlns:xlink="http://www.w3.org/1999/xlink" version="1.1" id="Слой_1" x="0px" y="0px" width="54px" height="48px" viewBox="14.483999252319336 12.967000961303711 25.197999954223633 24.283998489379883" enable-background="new 0 0 54 48" xml:space="preserve">
<path d="M37.184,29.631c-1.42-1.143-2.54-1.675-3.526-1.675c-1.199,0-1.972,0.783-2.787,1.61l-0.255,0.255  c-0.019,0.019-0.075,0.076-0.237,0.076c-0.324,0-0.842-0.221-1.457-0.621c-0.89-0.577-2.012-1.54-3.334-2.862  c-4.169-4.168-3.417-5.021-3.412-5.028l0.256-0.252c1.439-1.418,2.798-2.759-0.057-6.313c-0.973-1.208-1.933-1.813-2.934-1.851  l-0.116-0.003c-1.399,0-2.473,1.13-3.334,2.037l-0.069,0.072c-0.123,0.128-0.242,0.253-0.366,0.373  c-1.054,1.059-1.072,3.309-0.048,6.019c1.104,2.92,3.272,6.088,6.104,8.92c2.842,2.839,6.009,5.005,8.916,6.1  c1.319,0.499,2.561,0.763,3.589,0.763c1.062,0,1.903-0.28,2.436-0.812c0.079-0.079,0.161-0.158,0.246-0.238l0.193-0.187  c0.985-0.936,2.103-1.996,2.043-3.453C38.992,31.555,38.387,30.596,37.184,29.631z"/>
<path stroke="#000000" stroke-width="0.5" stroke-miterlimit="10" d="M19.336,14.017"/>
<g>
	<path d="M28.953,17.211c-0.326,0.144-0.473,0.53-0.325,0.862c0.143,0.315,0.539,0.467,0.857,0.325   c1.147-0.518,2.598-0.252,3.485,0.631c0.885,0.892,1.153,2.217,0.686,3.371c-0.138,0.327,0.02,0.707,0.361,0.851   c0.077,0.029,0.157,0.043,0.24,0.043c0.264,0,0.498-0.157,0.599-0.402c0.671-1.648,0.29-3.524-0.969-4.779   C32.629,16.851,30.576,16.474,28.953,17.211z"/>
	<path d="M36.614,15.388c-1.533-1.536-3.669-2.417-5.861-2.417c-1.182,0-2.322,0.245-3.39,0.728c-0.158,0.071-0.278,0.2-0.34,0.363   c-0.061,0.163-0.056,0.338,0.016,0.495c0.143,0.313,0.513,0.472,0.862,0.328c0.899-0.407,1.86-0.614,2.855-0.614   c1.848,0,3.647,0.742,4.938,2.035c1.984,1.984,2.586,4.947,1.532,7.543c-0.067,0.159-0.067,0.334-0.001,0.495   c0.066,0.16,0.196,0.289,0.358,0.354c0.076,0.03,0.155,0.044,0.244,0.044c0.263,0,0.505-0.162,0.603-0.402   C39.682,21.251,38.968,17.737,36.614,15.388z"/>
</g>
</svg>