<?xml version="1.0" encoding="utf-8"?>
<!-- Generator: Adobe Illustrator 16.0.0, SVG Export Plug-In . SVG Version: 6.00 Build 0)  -->
<!DOCTYPE svg PUBLIC "-//W3C//DTD SVG 1.1//EN" "http://www.w3.org/Graphics/SVG/1.1/DTD/svg11.dtd">
<svg xmlns="http://www.w3.org/2000/svg" xmlns:xlink="http://www.w3.org/1999/xlink" version="1.1" id="Слой_1" x="0px" y="0px" width="72px" height="70px" viewBox="10.527999877929688 8.77800178527832 51.51799774169922 51.069000244140625" enable-background="new 0 0 72 70" xml:space="preserve">
<path d="M50.986,59.847c-2.073,0-4.571-0.522-7.313-1.559c-6.023-2.27-12.568-6.757-18.445-12.627  c-5.876-5.874-10.357-12.429-12.635-18.453c-2.065-5.469-2.065-9.965-0.018-12.023c0.303-0.292,0.604-0.612,0.915-0.938  c1.876-1.974,4.047-4.213,6.808-4.089c1.941,0.073,3.819,1.28,5.746,3.673c5.672,7.061,3.117,9.574,0.154,12.495l-0.53,0.522  c-0.48,0.484-1.396,2.727,7.125,11.248c2.783,2.783,5.15,4.817,7.051,6.05c1.192,0.775,3.322,1.948,4.195,1.067l0.531-0.531  c2.913-2.954,5.436-5.507,12.495,0.172c2.392,1.918,3.592,3.797,3.673,5.739c0.114,2.806-2.13,4.938-4.105,6.813  c-0.318,0.313-0.637,0.604-0.931,0.899C54.676,59.332,53.043,59.847,50.986,59.847L50.986,59.847z M20.102,11.823  c-2,0-3.802,1.894-5.395,3.575c-0.326,0.334-0.638,0.669-0.947,0.972c-1.527,1.525-1.37,5.557,0.4,10.25  c2.188,5.812,6.538,12.152,12.25,17.859c5.714,5.712,12.048,10.062,17.851,12.249c4.701,1.773,8.725,1.929,10.26,0.395  c0.302-0.303,0.628-0.612,0.963-0.933c1.722-1.631,3.665-3.485,3.583-5.532c-0.058-1.412-1.086-2.932-3.053-4.505  c-5.885-4.726-7.525-3.053-10.251-0.294l-0.539,0.539c-1.298,1.306-3.411,1.02-6.293-0.85c-1.99-1.3-4.456-3.411-7.32-6.276  c-7.069-7.069-9.338-11.396-7.117-13.615l0.529-0.522c2.777-2.735,4.44-4.375-0.284-10.259c-1.584-1.968-3.104-2.996-4.507-3.053  C20.183,11.823,20.142,11.823,20.102,11.823L20.102,11.823z M20.102,11.823"/>
<path d="M51.28,30.686c-0.106,0-0.213-0.018-0.318-0.057c-0.425-0.18-0.637-0.663-0.457-1.087c1.061-2.62,0.448-5.605-1.543-7.614  c-2.057-2.05-5.216-2.62-7.868-1.428c-0.416,0.188-0.914,0-1.102-0.417c-0.188-0.424-0.008-0.921,0.416-1.109  c3.281-1.486,7.19-0.767,9.729,1.777c2.481,2.474,3.232,6.17,1.91,9.419C51.916,30.488,51.606,30.686,51.28,30.686L51.28,30.686z   M51.28,30.686"/>
<path d="M58.74,33.712c-0.106,0-0.213-0.014-0.318-0.056c-0.425-0.171-0.637-0.66-0.457-1.084c2.285-5.634,0.979-12.04-3.314-16.333  c-4.407-4.416-11.189-5.648-16.87-3.076c-0.425,0.177-0.915,0-1.109-0.427c-0.188-0.415,0-0.913,0.417-1.101  c6.315-2.857,13.85-1.486,18.746,3.421c4.775,4.765,6.211,11.891,3.682,18.142C59.385,33.519,59.066,33.712,58.74,33.712  L58.74,33.712z M58.74,33.712"/>
</svg>