<?xml version="1.0" encoding="utf-8"?>
<!-- Generator: Adobe Illustrator 16.0.0, SVG Export Plug-In . SVG Version: 6.00 Build 0)  -->
<!DOCTYPE svg PUBLIC "-//W3C//DTD SVG 1.1//EN" "http://www.w3.org/Graphics/SVG/1.1/DTD/svg11.dtd">
<svg xmlns="http://www.w3.org/2000/svg" xmlns:xlink="http://www.w3.org/1999/xlink" version="1.1" id="Слой_1" x="0px" y="0px" width="518.974px" height="527.974px" viewBox="50.27298355102539 38.24699783325195 407.4920349121094 474.1290283203125" enable-background="new 0 0 518.974 527.974" xml:space="preserve">
<path fill="#A1A1A1" d="M156.001,248.589"/>
<path d="M257.796,41.107c-111.613-2.86-204.622,85.596-207.477,197.018c-0.026,1.033-0.04,2.034-0.046,3.021  c0.125-0.009,0.251-0.012,0.376-0.02c1.139,5.804,6.133,10.215,12.308,10.379c7.161,0.193,13.06-5.396,13.256-12.56  c1.202-47.097,20.774-90.921,54.985-123.334l-0.146-0.154c32.77-31.129,77.391-49.795,126.083-48.547  c97.373,2.494,174.461,83.739,171.969,181.019c-2.492,97.277-83.638,174.372-181.01,171.876l-0.957-0.024l49.818-52.37  c4.915-5.229,4.648-13.359-0.483-18.271c-5.23-4.916-13.366-4.647-18.279,0.483l-74.787,78.884c-2.258,2.334-3.484,5.36-3.565,8.515  c-0.015,0.573-0.027,1.054,0.051,1.627c0.385,3.739,2.307,7.135,5.406,9.316l85.946,60.34c5.825,4.071,13.892,2.653,17.964-3.172  c4.066-5.825,2.648-13.893-3.178-17.963l-59.271-41.583l0.673,0.018c111.515,2.857,204.616-85.5,207.474-197.014  C457.765,137.07,369.404,43.967,257.796,41.107z"/>
</svg>