<?xml version="1.0" encoding="utf-8"?>
<!-- Generator: Adobe Illustrator 16.0.0, SVG Export Plug-In . SVG Version: 6.00 Build 0)  -->
<!DOCTYPE svg PUBLIC "-//W3C//DTD SVG 1.1//EN" "http://www.w3.org/Graphics/SVG/1.1/DTD/svg11.dtd">
<svg version="1.1" id="Слой_1" xmlns="http://www.w3.org/2000/svg" xmlns:xlink="http://www.w3.org/1999/xlink" x="0px" y="0px"
	 width="72px" height="70px" viewBox="0 0 72 70" enable-background="new 0 0 72 70" xml:space="preserve">
<path d="M48.459,46.135c3.903-4.226,6.338-9.884,6.338-16.114c0-13.07-10.635-23.741-23.74-23.741
	c-13.106,0-23.741,10.671-23.741,23.741s10.635,23.741,23.741,23.741c5.335,0,10.241-1.755,14.216-4.727l14.07,14.012
	c0.43,0.429,0.967,0.644,1.504,0.644s1.11-0.215,1.505-0.644c0.822-0.824,0.822-2.185,0-3.044L48.459,46.135z M11.613,30.021
	c0-10.707,8.702-19.444,19.444-19.444c10.707,0,19.443,8.702,19.443,19.444c0,10.743-8.701,19.444-19.443,19.444
	S11.613,40.728,11.613,30.021L11.613,30.021z M11.613,30.021"/>
</svg>
