<svg id="Слой_1" data-name="Слой 1" xmlns="http://www.w3.org/2000/svg" viewBox="0 0 511.99 304.38"><title>Векторный смарт-объект3</title><path d="M999.46-271.23H980V-282h19.42ZM842.36-421.86h38.75V-331a10.2,10.2,0,0,0,10.2,10.2h82.23l25.91,15v3.29H969.84a10.19,10.19,0,0,0-10.18,10.2V-261a10.19,10.19,0,0,0,10.18,10.18h29.62v28h-42a51.14,51.14,0,0,0-50.06-40.88,51.14,51.14,0,0,0-50,40.88H842.36Zm65.08,239.92a30.71,30.71,0,0,1-30.59-28.66,9.59,9.59,0,0,0,.2-2,10,10,0,0,0-.2-2,30.7,30.7,0,0,1,30.59-28.63,30.73,30.73,0,0,1,30.7,30.67,30.74,30.74,0,0,1-30.7,30.7Zm-306.57,0a30.72,30.72,0,0,1-30.67-30.7,30.71,30.71,0,0,1,30.67-30.67,30.71,30.71,0,0,1,30.67,30.67,30.72,30.72,0,0,1-30.67,30.7Zm-72.62-93.63H822v16.16H730a10.2,10.2,0,0,0-10.21,10.21A10.2,10.2,0,0,0,730-239h92v16.19h-171a51.19,51.19,0,0,0-50.06-40.88,51.17,51.17,0,0,0-50.06,40.88H528.26Zm0-170H822V-296H528.26ZM948.49-405l14.94,63.86H901.52v-80.7h25.74A21.72,21.72,0,0,1,948.49-405ZM857.42-202.43a51.14,51.14,0,0,0,50,40.88,51.14,51.14,0,0,0,50.06-40.88h52.16a10.19,10.19,0,0,0,10.18-10.21v-99a10.18,10.18,0,0,0-5.07-8.82l-29.54-17.15-16.87-72.11a42.08,42.08,0,0,0-41.13-32.6H842.36v-13.46a10.2,10.2,0,0,0-10.21-10.2H518.05a10.2,10.2,0,0,0-10.2,10.2v243.1a10.2,10.2,0,0,0,10.2,10.21h32.77a51.17,51.17,0,0,0,50.06,40.88,51.19,51.19,0,0,0,50.06-40.88Z" transform="translate(-507.85 465.94)" /><path d="M686.94-239h8.59a10.2,10.2,0,0,0,10.2-10.21,10.2,10.2,0,0,0-10.2-10.21h-8.59a10.2,10.2,0,0,0-10.2,10.21A10.2,10.2,0,0,0,686.94-239Z" transform="translate(-507.85 465.94)" /></svg>