<?xml version="1.0" encoding="utf-8"?>
<!-- Generator: Adobe Illustrator 16.0.0, SVG Export Plug-In . SVG Version: 6.00 Build 0)  -->
<!DOCTYPE svg PUBLIC "-//W3C//DTD SVG 1.1//EN" "http://www.w3.org/Graphics/SVG/1.1/DTD/svg11.dtd">
<svg version="1.1" id="Слой_1" xmlns="http://www.w3.org/2000/svg" xmlns:xlink="http://www.w3.org/1999/xlink" x="0px" y="0px"
	 width="72px" height="70px" viewBox="0 0 72 70" enable-background="new 0 0 72 70" xml:space="preserve">
<path d="M58.656,29.471c-0.098-0.289-0.348-0.5-0.648-0.543l-14.473-2.101L37.063,13.71c-0.133-0.274-0.41-0.446-0.714-0.446
	c-0.305,0-0.582,0.172-0.719,0.446l-6.473,13.117l-14.472,2.101c-0.301,0.043-0.551,0.254-0.645,0.543
	c-0.094,0.289-0.016,0.61,0.203,0.821l10.473,10.207l-2.473,14.414c-0.054,0.3,0.07,0.604,0.317,0.785
	c0.14,0.101,0.304,0.151,0.468,0.151c0.129,0,0.258-0.031,0.375-0.094l12.946-6.804l12.941,6.804
	c0.27,0.145,0.598,0.122,0.844-0.058c0.246-0.181,0.371-0.485,0.32-0.781L47.98,40.503l10.473-10.211
	C58.672,30.081,58.75,29.76,58.656,29.471z M46.563,39.646c-0.188,0.185-0.273,0.449-0.23,0.711l2.27,13.23l-11.883-6.25
	c-0.235-0.121-0.512-0.121-0.742,0l-11.887,6.25l2.269-13.23c0.047-0.262-0.039-0.526-0.226-0.711l-9.613-9.371l13.285-1.926
	c0.257-0.039,0.484-0.203,0.601-0.441l5.942-12.035l5.941,12.035c0.117,0.238,0.34,0.402,0.602,0.437l13.285,1.93L46.563,39.646z"/>
<path d="M16.52,30.276"/>
</svg>
