<?xml version="1.0" encoding="utf-8"?>
<!-- Generator: Adobe Illustrator 16.0.0, SVG Export Plug-In . SVG Version: 6.00 Build 0)  -->
<!DOCTYPE svg PUBLIC "-//W3C//DTD SVG 1.1//EN" "http://www.w3.org/Graphics/SVG/1.1/DTD/svg11.dtd">
<svg xmlns="http://www.w3.org/2000/svg" xmlns:xlink="http://www.w3.org/1999/xlink" version="1.1" id="Слой_1" x="0px" y="0px" width="595.28px" height="841.89px" viewBox="274.9450378417969 400.2629699707031 44.804962158203125 42.63604736328125" enable-background="new 0 0 595.28 841.89" xml:space="preserve">
<path d="M319.656,416.47c-0.098-0.289-0.348-0.5-0.648-0.543l-14.473-2.101l-6.473-13.117c-0.132-0.274-0.411-0.446-0.714-0.446  c-0.305,0-0.582,0.172-0.719,0.446l-6.473,13.117l-14.472,2.101c-0.301,0.043-0.551,0.254-0.645,0.543  c-0.094,0.289-0.016,0.61,0.203,0.821l10.473,10.207l-2.473,14.414c-0.054,0.3,0.07,0.604,0.317,0.785  c0.14,0.101,0.304,0.151,0.468,0.151c0.129,0,0.258-0.031,0.375-0.094l12.946-6.804l12.941,6.804  c0.27,0.145,0.598,0.122,0.844-0.058c0.246-0.181,0.371-0.485,0.32-0.781l-2.473-14.414l10.473-10.211  C319.672,417.081,319.75,416.759,319.656,416.47z"/>
<path d="M277.52,417.275"/>
</svg>
