<?xml version="1.0" encoding="utf-8"?>
<!-- Generator: Adobe Illustrator 16.0.0, SVG Export Plug-In . SVG Version: 6.00 Build 0)  -->
<!DOCTYPE svg PUBLIC "-//W3C//DTD SVG 1.1//EN" "http://www.w3.org/Graphics/SVG/1.1/DTD/svg11.dtd">
<svg xmlns="http://www.w3.org/2000/svg" xmlns:xlink="http://www.w3.org/1999/xlink" version="1.1" id="Слой_1" x="0px" y="0px" width="72px" height="70px" viewBox="4.300000190734863 3.992000102996826 63.66500473022461 61.268001556396484" enable-background="new 0 0 72 70" xml:space="preserve">
<g>
	<path d="M65.909,3.992H6.356c-1.132,0-2.056,0.924-2.056,2.056v9.145c0,1.135,0.924,2.06,2.056,2.06h59.553   c1.135,0,2.056-0.925,2.056-2.06V6.047C67.965,4.916,67.044,3.992,65.909,3.992L65.909,3.992z M65.909,3.992"/>
	<path d="M65.909,27.995H6.356c-1.132,0-2.056,0.924-2.056,2.056v9.146c0,1.134,0.924,2.059,2.056,2.059h59.553   c1.135,0,2.056-0.925,2.056-2.059V30.05C67.965,28.919,67.044,27.995,65.909,27.995L65.909,27.995z M65.909,27.995"/>
	<path d="M65.909,51.998H6.356c-1.132,0-2.056,0.924-2.056,2.056v9.146c0,1.134,0.924,2.06,2.056,2.06h59.553   c1.135,0,2.056-0.926,2.056-2.06v-9.146C67.965,52.922,67.044,51.998,65.909,51.998L65.909,51.998z M65.909,51.998"/>
</g>
</svg>