<?xml version="1.0" encoding="utf-8"?>
<!-- Generator: Adobe Illustrator 16.0.0, SVG Export Plug-In . SVG Version: 6.00 Build 0)  -->
<!DOCTYPE svg PUBLIC "-//W3C//DTD SVG 1.1//EN" "http://www.w3.org/Graphics/SVG/1.1/DTD/svg11.dtd">
<svg version="1.1" id="Слой_1" xmlns="http://www.w3.org/2000/svg" xmlns:xlink="http://www.w3.org/1999/xlink" x="0px" y="0px"
	 width="72px" height="70px" viewBox="0 0 72 70" enable-background="new 0 0 72 70" xml:space="preserve">
<path d="M40.483,29.352h-6.67v-6.677c0-0.614-0.5-1.112-1.114-1.112s-1.114,0.498-1.114,1.112v6.677h-6.676
	c-0.613,0-1.114,0.5-1.114,1.113s0.501,1.114,1.114,1.114h6.676v6.671c0,0.614,0.5,1.111,1.114,1.111s1.114-0.497,1.114-1.111
	v-6.671h6.67c0.614,0,1.113-0.501,1.113-1.114S41.098,29.352,40.483,29.352L40.483,29.352z M40.483,29.352"/>
<path d="M56.476,54.684L44.589,42.318c3.031-3.043,4.91-7.233,4.91-11.854c0-9.267-7.539-16.802-16.801-16.802
	c-9.266,0-16.801,7.535-16.801,16.802c0,9.262,7.535,16.801,16.801,16.801c4.066,0,7.797-1.457,10.707-3.867l11.914,12.395
	c0.156,0.164,0.367,0.24,0.578,0.24c0.199,0,0.398-0.072,0.555-0.221C56.769,55.508,56.78,55,56.476,54.684L56.476,54.684z
	 M17.499,30.465c0-8.384,6.816-15.199,15.199-15.199c8.379,0,15.199,6.815,15.199,15.199c0,8.379-6.82,15.199-15.199,15.199
	C24.315,45.664,17.499,38.844,17.499,30.465L17.499,30.465z M17.499,30.465"/>
</svg>
